# xmcd
#
# Track frame offsets: 
#        150
#        12605
#        23270
#        36265
#        48529
#        58835
#        72075
#        85250
#        98624
#        111330
#        124776
#        139113
#        152866
#        165628
#        179530
#        193897
#        206690
#        220899
#        235057
#        248798
#
# Disc length: 3470 seconds
#
# Revision: 1
# Processed by: cddbd v1.5.2PL0 Copyright (c) Steve Scherf et al.
# Submitted via: ExactAudioCopy v1.1
#
DISCID=1e0d8c14
DTITLE=Gene Krupa - Drum Boogie
DYEAR=2000
DGENRE=Jazz
TTITLE0=Rhythm Jam
TTITLE1=Gene Krupa (vocals - Leo Watson) - Tutti Frutti
TTITLE2=Quiet And Roll'em
TTITLE3=Jungle Madness
TTITLE4=Old Black Joe
TTITLE5=Drummin' Man
TTITLE6=Say 'Si Si'
TTITLE7=Love In My Heart
TTITLE8=Who?
TTITLE9=That Drummer's Band
TTITLE10=Massachusetts
TTITLE11=Ball Of Fire
TTITLE12=Gene Krupa (vocals - Irene Daye) - Rhumboogie
TTITLE13=Gene Krupa (vocals - Irene Daye) - Drum Boogie
TTITLE14=Gene Krupa (vocals - Anita O'Day) - The Walls Keep Talking
TTITLE15=Gene Krupa (vocals - Anita O'Day) - Bolero At The Savoy
TTITLE16=Gene Krupa (vocals - Anita O'Day) - Thanks For The Boogie Rid
TTITLE16=e
TTITLE17=Gene Krupa (vocals - Anita O'Day) - That's What You Think
TTITLE18=Gene Krupa (vocals - Anita O'Day) - Let Me Off Uptown
TTITLE19=Gene Krupa (vocals - Anita O'Day) - After You've Gone
EXTD=
EXTT0=
EXTT1=
EXTT2=
EXTT3=
EXTT4=
EXTT5=
EXTT6=
EXTT7=
EXTT8=
EXTT9=
EXTT10=
EXTT11=
EXTT12=
EXTT13=
EXTT14=
EXTT15=
EXTT16=
EXTT17=
EXTT18=
EXTT19=
PLAYORDER=
